<?xml version="1.0" standalone="no"?>
<!DOCTYPE svg PUBLIC "-//W3C//DTD SVG 20010904//EN"
 "http://www.w3.org/TR/2001/REC-SVG-20010904/DTD/svg10.dtd">
<svg version="1.0" xmlns="http://www.w3.org/2000/svg"
 width="260.000000pt" height="260.000000pt" viewBox="0 0 260.000000 260.000000"
 preserveAspectRatio="xMidYMid meet">
<metadata>
Created by potrace 1.14, written by Peter Selinger 2001-2017
</metadata>
<g transform="translate(0.000000,260.000000) scale(0.100000,-0.100000)"
fill="#000000" stroke="none">
<path d="M0 1300 l0 -1300 1300 0 1300 0 0 1300 0 1300 -1300 0 -1300 0 0
-1300z m1922 1149 c-17 -20 -38 -27 -27 -9 3 6 -4 10 -17 11 -13 0 -17 3 -10
6 6 2 12 11 12 18 0 11 6 12 29 4 28 -10 29 -11 13 -30z m-365 -50 c-2 -43 2
-54 21 -67 20 -13 20 -16 6 -26 -13 -10 -2 -22 72 -76 49 -36 196 -145 329
-242 132 -98 246 -178 253 -178 6 0 12 9 12 20 0 11 5 20 10 20 6 0 10 -4 10
-9 0 -13 57 -34 75 -27 17 6 21 -9 4 -20 -7 -4 -9 -22 -6 -44 5 -37 4 -38 -26
-36 -35 1 -41 -7 -81 -116 -13 -35 -47 -124 -76 -198 -29 -74 -67 -173 -85
-220 -17 -47 -57 -151 -88 -231 -31 -81 -57 -156 -57 -167 0 -11 11 -29 24
-40 l25 -19 -35 -16 c-23 -12 -34 -23 -34 -39 l0 -21 -25 23 c-14 13 -31 20
-42 17 -128 -36 -559 -181 -561 -188 -2 -5 -8 -7 -13 -4 -9 6 -358 -102 -373
-116 -5 -5 -4 -14 4 -24 11 -13 8 -15 -22 -15 -34 0 -35 -1 -42 -46 -9 -67 -7
-112 4 -119 15 -9 12 -25 -5 -25 -7 0 -19 -8 -25 -17 -10 -17 -10 -17 -20 -1
-6 10 -18 18 -26 18 -11 0 -12 5 -6 17 5 10 7 24 5 31 -3 8 5 12 25 12 29 0
29 0 31 64 2 64 -12 96 -42 96 -7 0 -4 7 6 14 9 7 17 23 17 36 0 17 4 21 18
15 9 -5 32 -8 50 -8 24 -1 31 -4 27 -14 -4 -11 1 -13 18 -8 42 12 343 107 477
150 74 24 197 64 272 88 76 24 144 50 153 57 18 15 20 56 3 66 -9 6 -6 10 8
14 24 6 32 -35 -221 1090 -102 455 -90 410 -101 382 l-10 -23 -22 31 c-21 28
-62 45 -46 18 4 -6 3 -8 -3 -5 -15 9 -433 -439 -433 -464 0 -10 8 -27 18 -36
17 -17 16 -18 -18 -28 -20 -6 -40 -21 -46 -34 l-12 -23 -7 22 c-8 24 -45 42
-61 29 -6 -5 -90 -36 -188 -69 -187 -65 -249 -89 -228 -90 21 0 13 -14 -19
-33 -25 -14 -30 -22 -27 -42 6 -28 -3 -32 -22 -10 -7 8 -16 12 -21 9 -5 -3 -9
2 -9 12 0 12 -7 15 -30 12 -29 -4 -40 5 -20 17 13 8 13 52 -1 61 -8 5 -8 9 1
14 8 5 2 26 -21 74 -23 46 -35 63 -41 54 -7 -10 -13 -8 -25 10 -8 12 -22 22
-29 22 -10 0 -12 9 -7 33 3 17 6 33 7 33 1 1 20 4 43 7 40 5 43 3 43 -18 0
-12 7 -28 16 -36 14 -12 14 -14 -5 -21 -21 -7 -20 -9 16 -83 21 -41 41 -75 45
-75 4 0 16 9 26 21 l20 20 10 -30 c6 -17 15 -31 20 -31 5 0 103 32 218 71 225
76 250 91 240 142 -6 28 -5 29 27 23 20 -3 45 1 68 12 45 21 433 434 417 443
-7 5 -5 15 6 30 9 14 16 43 16 72 0 41 3 48 16 43 48 -18 78 -15 131 13 0 1 0
-22 0 -50z m-496 -44 c-1 -15 -24 -12 -29 3 -3 9 2 13 12 10 10 -1 17 -7 17
-13z m1429 -369 c0 -3 -4 -8 -10 -11 -5 -3 -10 -1 -10 4 0 6 5 11 10 11 6 0
10 -2 10 -4z m-1880 -180 c0 -3 -4 -8 -10 -11 -5 -3 -10 -1 -10 4 0 6 5 11 10
11 6 0 10 -2 10 -4z m570 -6 c0 -5 -2 -10 -4 -10 -3 0 -8 5 -11 10 -3 6 -1 10
4 10 6 0 11 -4 11 -10z m-610 -340 c0 -5 -2 -10 -4 -10 -3 0 -8 5 -11 10 -3 6
-1 10 4 10 6 0 11 -4 11 -10z m-290 -220 c0 -5 -5 -10 -11 -10 -5 0 -7 5 -4
10 3 6 8 10 11 10 2 0 4 -4 4 -10z m1870 -740 c0 -5 -4 -10 -10 -10 -5 0 -10
5 -10 10 0 6 5 10 10 10 6 0 10 -4 10 -10z m-1640 -40 c0 -5 -5 -10 -11 -10
-5 0 -7 5 -4 10 3 6 8 10 11 10 2 0 4 -4 4 -10z m870 -37 c0 -1 -9 -7 -20 -13
-16 -8 -20 -8 -20 4 0 9 8 14 20 13 11 -1 20 -2 20 -4z m-480 -133 c0 -5 -4
-10 -10 -10 -5 0 -10 5 -10 10 0 6 5 10 10 10 6 0 10 -4 10 -10z m1565 -230
c3 -5 1 -10 -4 -10 -6 0 -11 5 -11 10 0 6 2 10 4 10 3 0 8 -4 11 -10z"/>
<path d="M1534 2265 c19 -107 288 -1314 299 -1340 6 -16 10 -36 9 -42 -5 -21
18 -93 29 -93 32 0 51 30 99 152 178 457 280 731 280 752 0 24 -18 50 -42 59
-9 3 -8 9 5 19 17 13 17 14 -5 34 -24 22 -602 447 -653 480 l-28 18 7 -39z"/>
</g>
</svg>
